<?xml version="1.0" encoding="UTF-8" standalone="no"?>
<!DOCTYPE svg PUBLIC "-//W3C//DTD SVG 1.1//EN"
 "http://www.w3.org/Graphics/SVG/1.1/DTD/svg11.dtd">
<!-- Generated by graphviz version 2.40.1 (20161225.0304)
 -->
<!-- Title: controllers_diagram Pages: 1 -->
<svg width="574pt" height="549pt"
 viewBox="0.00 0.00 574.00 549.00" xmlns="http://www.w3.org/2000/svg" xmlns:xlink="http://www.w3.org/1999/xlink">
<g id="graph0" class="graph" transform="scale(1 1) rotate(0) translate(4 545)">
<title>controllers_diagram</title>
<polygon fill="transparent" stroke="transparent" points="-4,4 -4,-545 570,-545 570,4 -4,4"/>
<!-- _diagram_info -->
<g id="node1" class="node">
<title>_diagram_info</title>
<text text-anchor="start" x="360" y="-415.6" font-family="Times,serif" font-size="13.00" fill="#000000">Controllers diagram</text>
<text text-anchor="start" x="360" y="-401.6" font-family="Times,serif" font-size="13.00" fill="#000000">Date: Dec 21 2018 &#45; 11:30</text>
<text text-anchor="start" x="360" y="-387.6" font-family="Times,serif" font-size="13.00" fill="#000000">Migration version: 20181220181658</text>
<text text-anchor="start" x="360" y="-373.6" font-family="Times,serif" font-size="13.00" fill="#000000">Generated by RailRoady 1.5.3</text>
<text text-anchor="start" x="360" y="-359.6" font-family="Times,serif" font-size="13.00" fill="#000000">http://railroady.prestonlee.com</text>
</g>
<!-- CommentsController -->
<g id="node2" class="node">
<title>CommentsController</title>
<path fill="none" stroke="#000000" d="M156,-112.5C156,-112.5 269,-112.5 269,-112.5 275,-112.5 281,-118.5 281,-124.5 281,-124.5 281,-313.5 281,-313.5 281,-319.5 275,-325.5 269,-325.5 269,-325.5 156,-325.5 156,-325.5 150,-325.5 144,-319.5 144,-313.5 144,-313.5 144,-124.5 144,-124.5 144,-118.5 150,-112.5 156,-112.5"/>
<text text-anchor="middle" x="212.5" y="-310.3" font-family="Times,serif" font-size="14.00" fill="#000000">CommentsController</text>
<polyline fill="none" stroke="#000000" points="144,-302.5 281,-302.5 "/>
<text text-anchor="start" x="152" y="-287.3" font-family="Times,serif" font-size="14.00" fill="#000000">create</text>
<text text-anchor="start" x="152" y="-272.3" font-family="Times,serif" font-size="14.00" fill="#000000">destroy</text>
<text text-anchor="start" x="152" y="-257.3" font-family="Times,serif" font-size="14.00" fill="#000000">edit</text>
<text text-anchor="start" x="152" y="-242.3" font-family="Times,serif" font-size="14.00" fill="#000000">index</text>
<text text-anchor="start" x="152" y="-227.3" font-family="Times,serif" font-size="14.00" fill="#000000">new</text>
<text text-anchor="start" x="152" y="-212.3" font-family="Times,serif" font-size="14.00" fill="#000000">show</text>
<text text-anchor="start" x="152" y="-197.3" font-family="Times,serif" font-size="14.00" fill="#000000">update</text>
<polyline fill="none" stroke="#000000" points="144,-189.5 281,-189.5 "/>
<polyline fill="none" stroke="#000000" points="144,-165.5 281,-165.5 "/>
<text text-anchor="start" x="152" y="-150.3" font-family="Times,serif" font-size="14.00" fill="#000000">_layout</text>
<text text-anchor="start" x="152" y="-135.3" font-family="Times,serif" font-size="14.00" fill="#000000">comment_params</text>
<text text-anchor="start" x="152" y="-120.3" font-family="Times,serif" font-size="14.00" fill="#000000">set_comment</text>
</g>
<!-- MemesController -->
<g id="node3" class="node">
<title>MemesController</title>
<path fill="none" stroke="#000000" d="M332,-128.5C332,-128.5 424,-128.5 424,-128.5 430,-128.5 436,-134.5 436,-140.5 436,-140.5 436,-299.5 436,-299.5 436,-305.5 430,-311.5 424,-311.5 424,-311.5 332,-311.5 332,-311.5 326,-311.5 320,-305.5 320,-299.5 320,-299.5 320,-140.5 320,-140.5 320,-134.5 326,-128.5 332,-128.5"/>
<text text-anchor="middle" x="378" y="-296.3" font-family="Times,serif" font-size="14.00" fill="#000000">MemesController</text>
<polyline fill="none" stroke="#000000" points="320,-288.5 436,-288.5 "/>
<text text-anchor="start" x="328" y="-273.3" font-family="Times,serif" font-size="14.00" fill="#000000">create</text>
<text text-anchor="start" x="328" y="-258.3" font-family="Times,serif" font-size="14.00" fill="#000000">destroy</text>
<text text-anchor="start" x="328" y="-243.3" font-family="Times,serif" font-size="14.00" fill="#000000">edit</text>
<text text-anchor="start" x="328" y="-228.3" font-family="Times,serif" font-size="14.00" fill="#000000">new</text>
<text text-anchor="start" x="328" y="-213.3" font-family="Times,serif" font-size="14.00" fill="#000000">show</text>
<text text-anchor="start" x="328" y="-198.3" font-family="Times,serif" font-size="14.00" fill="#000000">update</text>
<polyline fill="none" stroke="#000000" points="320,-190.5 436,-190.5 "/>
<polyline fill="none" stroke="#000000" points="320,-166.5 436,-166.5 "/>
<text text-anchor="start" x="328" y="-151.3" font-family="Times,serif" font-size="14.00" fill="#000000">_layout</text>
<text text-anchor="start" x="328" y="-136.3" font-family="Times,serif" font-size="14.00" fill="#000000">meme_params</text>
</g>
<!-- HomeController -->
<g id="node4" class="node">
<title>HomeController</title>
<path fill="none" stroke="#000000" d="M28,-432.5C28,-432.5 114,-432.5 114,-432.5 120,-432.5 126,-438.5 126,-444.5 126,-444.5 126,-528.5 126,-528.5 126,-534.5 120,-540.5 114,-540.5 114,-540.5 28,-540.5 28,-540.5 22,-540.5 16,-534.5 16,-528.5 16,-528.5 16,-444.5 16,-444.5 16,-438.5 22,-432.5 28,-432.5"/>
<text text-anchor="middle" x="71" y="-525.3" font-family="Times,serif" font-size="14.00" fill="#000000">HomeController</text>
<polyline fill="none" stroke="#000000" points="16,-517.5 126,-517.5 "/>
<text text-anchor="start" x="24" y="-502.3" font-family="Times,serif" font-size="14.00" fill="#000000">index</text>
<text text-anchor="start" x="24" y="-487.3" font-family="Times,serif" font-size="14.00" fill="#000000">show</text>
<polyline fill="none" stroke="#000000" points="16,-479.5 126,-479.5 "/>
<polyline fill="none" stroke="#000000" points="16,-455.5 126,-455.5 "/>
<text text-anchor="start" x="24" y="-440.3" font-family="Times,serif" font-size="14.00" fill="#000000">_layout</text>
</g>
<!-- ApplicationController -->
<g id="node5" class="node">
<title>ApplicationController</title>
<path fill="none" stroke="#000000" d="M332,-.5C332,-.5 451,-.5 451,-.5 457,-.5 463,-6.5 463,-12.5 463,-12.5 463,-82.5 463,-82.5 463,-88.5 457,-94.5 451,-94.5 451,-94.5 332,-94.5 332,-94.5 326,-94.5 320,-88.5 320,-82.5 320,-82.5 320,-12.5 320,-12.5 320,-6.5 326,-.5 332,-.5"/>
<text text-anchor="middle" x="391.5" y="-79.3" font-family="Times,serif" font-size="14.00" fill="#000000">ApplicationController</text>
<polyline fill="none" stroke="#000000" points="320,-71.5 463,-71.5 "/>
<polyline fill="none" stroke="#000000" points="320,-47.5 463,-47.5 "/>
<polyline fill="none" stroke="#000000" points="320,-23.5 463,-23.5 "/>
<text text-anchor="start" x="328" y="-8.3" font-family="Times,serif" font-size="14.00" fill="#000000">_layout</text>
</g>
<!-- RegistrationsController -->
<g id="node6" class="node">
<title>RegistrationsController</title>
<path fill="none" stroke="#000000" d="M172,-352.5C172,-352.5 303,-352.5 303,-352.5 309,-352.5 315,-358.5 315,-364.5 315,-364.5 315,-464.5 315,-464.5 315,-470.5 309,-476.5 303,-476.5 303,-476.5 172,-476.5 172,-476.5 166,-476.5 160,-470.5 160,-464.5 160,-464.5 160,-364.5 160,-364.5 160,-358.5 166,-352.5 172,-352.5"/>
<text text-anchor="middle" x="237.5" y="-461.3" font-family="Times,serif" font-size="14.00" fill="#000000">RegistrationsController</text>
<polyline fill="none" stroke="#000000" points="160,-453.5 315,-453.5 "/>
<polyline fill="none" stroke="#000000" points="160,-429.5 315,-429.5 "/>
<polyline fill="none" stroke="#000000" points="160,-405.5 315,-405.5 "/>
<text text-anchor="start" x="168" y="-390.3" font-family="Times,serif" font-size="14.00" fill="#000000">_layout</text>
<text text-anchor="start" x="168" y="-375.3" font-family="Times,serif" font-size="14.00" fill="#000000">account_update_params</text>
<text text-anchor="start" x="168" y="-360.3" font-family="Times,serif" font-size="14.00" fill="#000000">sign_up_params</text>
</g>
<!-- UsersController -->
<g id="node7" class="node">
<title>UsersController</title>
<path fill="none" stroke="#000000" d="M12,-304.5C12,-304.5 95,-304.5 95,-304.5 101,-304.5 107,-310.5 107,-316.5 107,-316.5 107,-385.5 107,-385.5 107,-391.5 101,-397.5 95,-397.5 95,-397.5 12,-397.5 12,-397.5 6,-397.5 0,-391.5 0,-385.5 0,-385.5 0,-316.5 0,-316.5 0,-310.5 6,-304.5 12,-304.5"/>
<text text-anchor="middle" x="53.5" y="-382.3" font-family="Times,serif" font-size="14.00" fill="#000000">UsersController</text>
<polyline fill="none" stroke="#000000" points="0,-374.5 107,-374.5 "/>
<text text-anchor="start" x="8" y="-359.3" font-family="Times,serif" font-size="14.00" fill="#000000">show</text>
<polyline fill="none" stroke="#000000" points="0,-351.5 107,-351.5 "/>
<polyline fill="none" stroke="#000000" points="0,-327.5 107,-327.5 "/>
<text text-anchor="start" x="8" y="-312.3" font-family="Times,serif" font-size="14.00" fill="#000000">_layout</text>
</g>
</g>
</svg>
