<?xml version="1.0" encoding="UTF-8" standalone="no"?>
<!DOCTYPE svg PUBLIC "-//W3C//DTD SVG 1.1//EN"
 "http://www.w3.org/Graphics/SVG/1.1/DTD/svg11.dtd">
<!-- Generated by graphviz version 2.40.1 (20161225.0304)
 -->
<!-- Title: models_diagram Pages: 1 -->
<svg width="590pt" height="158pt"
 viewBox="0.00 0.00 590.24 158.00" xmlns="http://www.w3.org/2000/svg" xmlns:xlink="http://www.w3.org/1999/xlink">
<g id="graph0" class="graph" transform="scale(1 1) rotate(0) translate(4 154)">
<title>models_diagram</title>
<polygon fill="transparent" stroke="transparent" points="-4,4 -4,-154 586.2428,-154 586.2428,4 -4,4"/>
<!-- _diagram_info -->
<g id="node1" class="node">
<title>_diagram_info</title>
<text text-anchor="start" x="8" y="-135.6" font-family="Times,serif" font-size="13.00" fill="#000000">Models diagram</text>
<text text-anchor="start" x="8" y="-121.6" font-family="Times,serif" font-size="13.00" fill="#000000">Date: Dec 21 2018 &#45; 11:30</text>
<text text-anchor="start" x="8" y="-107.6" font-family="Times,serif" font-size="13.00" fill="#000000">Migration version: 20181220181658</text>
<text text-anchor="start" x="8" y="-93.6" font-family="Times,serif" font-size="13.00" fill="#000000">Generated by RailRoady 1.5.3</text>
<text text-anchor="start" x="8" y="-79.6" font-family="Times,serif" font-size="13.00" fill="#000000">http://railroady.prestonlee.com</text>
</g>
<!-- Meme -->
<g id="node2" class="node">
<title>Meme</title>
<ellipse fill="none" stroke="#000000" cx="260" cy="-18" rx="34.394" ry="18"/>
<text text-anchor="middle" x="260" y="-14.3" font-family="Times,serif" font-size="14.00" fill="#000000">Meme</text>
</g>
<!-- User -->
<g id="node3" class="node">
<title>User</title>
<ellipse fill="none" stroke="#000000" cx="260" cy="-111" rx="27.8951" ry="18"/>
<text text-anchor="middle" x="260" y="-107.3" font-family="Times,serif" font-size="14.00" fill="#000000">User</text>
</g>
<!-- User&#45;&gt;Meme -->
<g id="edge1" class="edge">
<title>User&#45;&gt;Meme</title>
<path fill="none" stroke="#15c087" d="M260,-84.4432C260,-72.4479 260,-58.268 260,-46.0949"/>
<ellipse fill="none" stroke="#15c087" cx="260" cy="-88.6262" rx="4" ry="4"/>
<polygon fill="#15c087" stroke="#15c087" points="260.0001,-46.0192 264.5,-36.0191 260,-41.0192 260,-36.0192 260,-36.0192 260,-36.0192 260,-41.0192 255.5,-36.0192 260.0001,-46.0192 260.0001,-46.0192"/>
</g>
<!-- Comment -->
<g id="node4" class="node">
<title>Comment</title>
<ellipse fill="none" stroke="#000000" cx="354" cy="-111" rx="48.1917" ry="18"/>
<text text-anchor="middle" x="354" y="-107.3" font-family="Times,serif" font-size="14.00" fill="#000000">Comment</text>
</g>
<!-- ApplicationRecord -->
<g id="node5" class="node">
<title>ApplicationRecord</title>
<ellipse fill="none" stroke="#000000" cx="501" cy="-111" rx="81.4863" ry="18"/>
<text text-anchor="middle" x="501" y="-107.3" font-family="Times,serif" font-size="14.00" fill="#000000">ApplicationRecord</text>
</g>
</g>
</svg>
