<?xml version="1.0" encoding="UTF-8" standalone="no"?>
<!DOCTYPE svg PUBLIC "-//W3C//DTD SVG 1.1//EN"
 "http://www.w3.org/Graphics/SVG/1.1/DTD/svg11.dtd">
<!-- Generated by graphviz version 2.40.1 (20161225.0304)
 -->
<!-- Title: models_diagram Pages: 1 -->
<svg width="780pt" height="363pt"
 viewBox="0.00 0.00 780.24 363.00" xmlns="http://www.w3.org/2000/svg" xmlns:xlink="http://www.w3.org/1999/xlink">
<g id="graph0" class="graph" transform="scale(1 1) rotate(0) translate(4 359)">
<title>models_diagram</title>
<polygon fill="transparent" stroke="transparent" points="-4,4 -4,-359 776.2428,-359 776.2428,4 -4,4"/>
<!-- _diagram_info -->
<g id="node1" class="node">
<title>_diagram_info</title>
<text text-anchor="start" x="8" y="-296.1" font-family="Times,serif" font-size="13.00" fill="#000000">Models diagram</text>
<text text-anchor="start" x="8" y="-282.1" font-family="Times,serif" font-size="13.00" fill="#000000">Date: Dec 21 2018 &#45; 11:30</text>
<text text-anchor="start" x="8" y="-268.1" font-family="Times,serif" font-size="13.00" fill="#000000">Migration version: 20181220181658</text>
<text text-anchor="start" x="8" y="-254.1" font-family="Times,serif" font-size="13.00" fill="#000000">Generated by RailRoady 1.5.3</text>
<text text-anchor="start" x="8" y="-240.1" font-family="Times,serif" font-size="13.00" fill="#000000">http://railroady.prestonlee.com</text>
</g>
<!-- Meme -->
<g id="node2" class="node">
<title>Meme</title>
<path fill="none" stroke="#000000" d="M279.5,-.5C279.5,-.5 390.5,-.5 390.5,-.5 396.5,-.5 402.5,-6.5 402.5,-12.5 402.5,-12.5 402.5,-139.5 402.5,-139.5 402.5,-145.5 396.5,-151.5 390.5,-151.5 390.5,-151.5 279.5,-151.5 279.5,-151.5 273.5,-151.5 267.5,-145.5 267.5,-139.5 267.5,-139.5 267.5,-12.5 267.5,-12.5 267.5,-6.5 273.5,-.5 279.5,-.5"/>
<text text-anchor="middle" x="335" y="-136.3" font-family="Times,serif" font-size="14.00" fill="#000000">Meme</text>
<polyline fill="none" stroke="#000000" points="267.5,-128.5 402.5,-128.5 "/>
<text text-anchor="start" x="275.5" y="-113.3" font-family="Times,serif" font-size="14.00" fill="#000000">id :integer</text>
<text text-anchor="start" x="275.5" y="-98.3" font-family="Times,serif" font-size="14.00" fill="#000000">title :varchar</text>
<text text-anchor="start" x="275.5" y="-83.3" font-family="Times,serif" font-size="14.00" fill="#000000">body :text</text>
<text text-anchor="start" x="275.5" y="-68.3" font-family="Times,serif" font-size="14.00" fill="#000000">created_at :datetime</text>
<text text-anchor="start" x="275.5" y="-53.3" font-family="Times,serif" font-size="14.00" fill="#000000">updated_at :datetime</text>
<text text-anchor="start" x="275.5" y="-38.3" font-family="Times,serif" font-size="14.00" fill="#000000">user_id :integer</text>
<text text-anchor="start" x="275.5" y="-23.3" font-family="Times,serif" font-size="14.00" fill="#000000">user_name :varchar</text>
<text text-anchor="start" x="275.5" y="-8.3" font-family="Times,serif" font-size="14.00" fill="#000000">meme_type :integer</text>
</g>
<!-- User -->
<g id="node3" class="node">
<title>User</title>
<path fill="none" stroke="#000000" d="M244,-188.5C244,-188.5 426,-188.5 426,-188.5 432,-188.5 438,-194.5 438,-200.5 438,-200.5 438,-342.5 438,-342.5 438,-348.5 432,-354.5 426,-354.5 426,-354.5 244,-354.5 244,-354.5 238,-354.5 232,-348.5 232,-342.5 232,-342.5 232,-200.5 232,-200.5 232,-194.5 238,-188.5 244,-188.5"/>
<text text-anchor="middle" x="335" y="-339.3" font-family="Times,serif" font-size="14.00" fill="#000000">User</text>
<polyline fill="none" stroke="#000000" points="232,-331.5 438,-331.5 "/>
<text text-anchor="start" x="240" y="-316.3" font-family="Times,serif" font-size="14.00" fill="#000000">id :integer</text>
<text text-anchor="start" x="240" y="-301.3" font-family="Times,serif" font-size="14.00" fill="#000000">email :varchar</text>
<text text-anchor="start" x="240" y="-286.3" font-family="Times,serif" font-size="14.00" fill="#000000">encrypted_password :varchar</text>
<text text-anchor="start" x="240" y="-271.3" font-family="Times,serif" font-size="14.00" fill="#000000">reset_password_token :varchar</text>
<text text-anchor="start" x="240" y="-256.3" font-family="Times,serif" font-size="14.00" fill="#000000">reset_password_sent_at :datetime</text>
<text text-anchor="start" x="240" y="-241.3" font-family="Times,serif" font-size="14.00" fill="#000000">remember_created_at :datetime</text>
<text text-anchor="start" x="240" y="-226.3" font-family="Times,serif" font-size="14.00" fill="#000000">created_at :datetime</text>
<text text-anchor="start" x="240" y="-211.3" font-family="Times,serif" font-size="14.00" fill="#000000">updated_at :datetime</text>
<text text-anchor="start" x="240" y="-196.3" font-family="Times,serif" font-size="14.00" fill="#000000">name :varchar</text>
</g>
<!-- User&#45;&gt;Meme -->
<g id="edge1" class="edge">
<title>User&#45;&gt;Meme</title>
<path fill="none" stroke="#333734" d="M335,-180.2913C335,-174.157 335,-167.9881 335,-161.882"/>
<ellipse fill="none" stroke="#333734" cx="335" cy="-184.3069" rx="4" ry="4"/>
<polygon fill="#333734" stroke="#333734" points="335.0001,-161.6821 339.5,-151.6821 335,-156.6821 335,-151.6821 335,-151.6821 335,-151.6821 335,-156.6821 330.5,-151.6822 335.0001,-161.6821 335.0001,-161.6821"/>
</g>
<!-- Comment -->
<g id="node4" class="node">
<title>Comment</title>
<path fill="none" stroke="#000000" d="M468.5,-211C468.5,-211 579.5,-211 579.5,-211 585.5,-211 591.5,-217 591.5,-223 591.5,-223 591.5,-320 591.5,-320 591.5,-326 585.5,-332 579.5,-332 579.5,-332 468.5,-332 468.5,-332 462.5,-332 456.5,-326 456.5,-320 456.5,-320 456.5,-223 456.5,-223 456.5,-217 462.5,-211 468.5,-211"/>
<text text-anchor="middle" x="524" y="-316.8" font-family="Times,serif" font-size="14.00" fill="#000000">Comment</text>
<polyline fill="none" stroke="#000000" points="456.5,-309 591.5,-309 "/>
<text text-anchor="start" x="464.5" y="-293.8" font-family="Times,serif" font-size="14.00" fill="#000000">id :integer</text>
<text text-anchor="start" x="464.5" y="-278.8" font-family="Times,serif" font-size="14.00" fill="#000000">user_name :varchar</text>
<text text-anchor="start" x="464.5" y="-263.8" font-family="Times,serif" font-size="14.00" fill="#000000">body :text</text>
<text text-anchor="start" x="464.5" y="-248.8" font-family="Times,serif" font-size="14.00" fill="#000000">meme_id :integer</text>
<text text-anchor="start" x="464.5" y="-233.8" font-family="Times,serif" font-size="14.00" fill="#000000">created_at :datetime</text>
<text text-anchor="start" x="464.5" y="-218.8" font-family="Times,serif" font-size="14.00" fill="#000000">updated_at :datetime</text>
</g>
<!-- ApplicationRecord -->
<g id="node5" class="node">
<title>ApplicationRecord</title>
<ellipse fill="none" stroke="#000000" cx="691" cy="-271.5" rx="81.4863" ry="18"/>
<text text-anchor="middle" x="691" y="-267.8" font-family="Times,serif" font-size="14.00" fill="#000000">ApplicationRecord</text>
</g>
</g>
</svg>
